HIERARCHY
ROOT joint_Root
{
	OFFSET 0.0 0.0 0.0
	CHANNELS 6 Xposition Yposition Zposition Zrotation Xrotation Yrotation 
	JOINT Hips
	{
		OFFSET -0.726466 93.3139 -2.00062
		CHANNELS 6 Xposition Yposition Zposition Zrotation Xrotation Yrotation 
		JOINT Spine
		{
			OFFSET 15.7357 0.0 0.0
			CHANNELS 6 Xposition Yposition Zposition Zrotation Xrotation Yrotation 
			JOINT Chest
			{
				OFFSET 8.98455 -0.406207 0.0
				CHANNELS 6 Xposition Yposition Zposition Zrotation Xrotation Yrotation 
				JOINT Neck
				{
					OFFSET 16.3773 0.0 0.0
					CHANNELS 6 Xposition Yposition Zposition Zrotation Xrotation Yrotation 
					JOINT Head
					{
						OFFSET 6.45672 0.0 0.0
						CHANNELS 6 Xposition Yposition Zposition Zrotation Xrotation Yrotation 
						End Site
						{
							OFFSET 0.0 0.0 0.0
						}
					}
				}
				JOINT Shoulder_L
				{
					OFFSET 12.9942 -0.242716 4.98039
					CHANNELS 6 Xposition Yposition Zposition Zrotation Xrotation Yrotation 
					JOINT UpperArm_L
					{
						OFFSET 5.34809 0.0 0.0
						CHANNELS 6 Xposition Yposition Zposition Zrotation Xrotation Yrotation 
						JOINT LowerArm_L
						{
							OFFSET 24.3286 1.87007e-05 0.0
							CHANNELS 6 Xposition Yposition Zposition Zrotation Xrotation Yrotation 
							JOINT Hand_L
							{
								OFFSET 22.2916 0.0 0.0
								CHANNELS 6 Xposition Yposition Zposition Zrotation Xrotation Yrotation 
								End Site
								{
									OFFSET 0.0 0.0 0.0
								}
							}
						}
					}
				}
				JOINT Shoulder_R
				{
					OFFSET 12.9945 -0.242716 -4.98039
					CHANNELS 6 Xposition Yposition Zposition Zrotation Xrotation Yrotation 
					JOINT UpperArm_R
					{
						OFFSET -5.34813 0.0 0.0
						CHANNELS 6 Xposition Yposition Zposition Zrotation Xrotation Yrotation 
						JOINT LowerArm_R
						{
							OFFSET -24.3289 0.000322201 0.0
							CHANNELS 6 Xposition Yposition Zposition Zrotation Xrotation Yrotation 
							JOINT Hand_R
							{
								OFFSET -22.2915 -0.000108084 0.0
								CHANNELS 6 Xposition Yposition Zposition Zrotation Xrotation Yrotation 
								End Site
								{
									OFFSET 0.0 0.0 0.0
								}
							}
						}
					}
				}
			}
		}
		JOINT UpperLeg_L
		{
			OFFSET -2.19248 -6.46944 0.0
			CHANNELS 6 Xposition Yposition Zposition Zrotation Xrotation Yrotation 
			JOINT LowerLeg_L
			{
				OFFSET 39.0811 0.0 -1.23785e-05
				CHANNELS 6 Xposition Yposition Zposition Zrotation Xrotation Yrotation 
				JOINT Foot_L
				{
					OFFSET 40.9854 0.0 -1.26872e-05
					CHANNELS 6 Xposition Yposition Zposition Zrotation Xrotation Yrotation 
					JOINT Toes_L
					{
						OFFSET 11.7543 0.0 0.0
						CHANNELS 6 Xposition Yposition Zposition Zrotation Xrotation Yrotation 
						End Site
						{
							OFFSET 0.0 0.0 0.0
						}
					}
				}
			}
		}
		JOINT UpperLeg_R
		{
			OFFSET -2.19251 6.46944 0.0
			CHANNELS 6 Xposition Yposition Zposition Zrotation Xrotation Yrotation 
			JOINT LowerLeg_R
			{
				OFFSET -39.0811 -0.00228153 -0.0401928
				CHANNELS 6 Xposition Yposition Zposition Zrotation Xrotation Yrotation 
				JOINT Foot_R
				{
					OFFSET -40.9854 0.0 0.0
					CHANNELS 6 Xposition Yposition Zposition Zrotation Xrotation Yrotation 
					JOINT Toes_R
					{
						OFFSET -11.7543 0.0 0.0
						CHANNELS 6 Xposition Yposition Zposition Zrotation Xrotation Yrotation 
						End Site
						{
							OFFSET 0.0 0.0 0.0
						}
					}
				}
			}
		}
	}
}
MOTION
Frames:	4
Frame Time:	0.0333333
0.000000 0.000000 0.000000 0.000000 0.000000 -0.000000 -1.525170 92.817700 0.121105 89.022400 -2.487360 2.007270 15.735700 0.000005 -0.000001 91.405800 86.351300 -91.260500 8.984550 -0.406207 -0.000000 -0.470974 0.168549 0.291059 16.377300 -0.000001 -0.000001 4.353860 -2.570370 2.506540 6.456720 -0.000001 -0.000000 7.847190 -2.090530 -4.361490 12.994200 -0.242716 4.980390 -90.907600 2.829600 -72.208200 5.348090 -0.000007 -0.000001 -66.751500 38.522500 -13.641900 24.328600 0.000019 0.000005 4.521070 10.811700 -22.856300 22.291600 -0.000001 0.000005 2.608560 5.479730 -5.738340 12.994500 -0.242716 -4.980390 87.506500 7.959630 -72.542900 -5.348130 -0.000001 -0.000004 -63.672500 42.841900 -11.799700 -24.328900 0.000322 -0.000009 3.125280 8.684700 -19.886200 -22.291500 -0.000108 -0.000004 6.530040 5.366950 -1.892370 -2.192480 -6.469440 -0.000000 -176.229000 -7.401550 -1.355030 39.081100 -0.000007 -0.000012 -0.065366 0.210695 17.235800 40.985400 -0.000006 -0.000013 -0.729137 3.885440 -63.979500 11.754300 -0.000000 0.000003 -0.000002 -0.000032 -16.578800 -2.192510 6.469440 -0.000001 179.910000 9.851890 -179.865000 -39.081100 -0.002282 -0.040193 -0.053710 0.213239 14.975700 -40.985400 0.000008 0.000006 1.879110 7.317750 -63.534400 -11.754300 -0.000006 -0.000006 -0.005725 -0.068318 -19.353300
0.000000 0.000000 0.000000 0.000000 0.000000 -0.000000 -1.568150 92.817500 0.118587 89.008600 -2.472450 1.997540 15.735700 0.000005 -0.000001 92.036100 86.353100 -91.860900 8.984550 -0.406207 -0.000000 -0.477247 0.246483 0.351342 16.377300 -0.000001 -0.000001 4.336070 -2.520310 2.642370 6.456720 -0.000001 -0.000000 7.776450 -2.109410 -4.500700 12.994200 -0.242716 4.980390 -91.051100 3.233860 -71.983600 5.348090 -0.000007 -0.000001 -65.758300 36.182200 -14.084100 24.328600 0.000019 0.000005 7.245150 15.248000 -25.796400 22.291600 -0.000001 0.000005 0.751115 5.480550 -5.769520 12.994500 -0.242716 -4.980390 87.558100 7.805530 -72.567900 -5.348130 -0.000001 -0.000004 -64.009600 42.454000 -11.579800 -24.328900 0.000322 -0.000009 3.145010 8.774920 -19.813900 -22.291500 -0.000108 -0.000004 6.547830 5.366300 -1.872360 -2.192480 -6.469440 -0.000000 -176.190000 -7.422630 -1.372000 39.081100 -0.000007 -0.000012 -0.064280 0.207066 17.245900 40.985400 -0.000006 -0.000013 -0.759381 3.870210 -63.977000 11.754300 -0.000000 0.000003 -0.000001 -0.000015 -16.578100 -2.192510 6.469440 -0.000001 179.944000 9.866430 -179.869000 -39.081100 -0.002282 -0.040193 -0.053277 0.211836 14.961300 -40.985400 0.000008 0.000006 1.912140 7.379360 -63.532000 -11.754300 -0.000006 -0.000006 -0.005887 -0.069806 -19.414000
0.000000 0.000000 0.000000 0.000000 0.000000 -0.000000 -1.624130 92.829400 0.069551 88.984100 -2.429890 1.934640 15.735700 0.000005 -0.000001 93.105000 86.356400 -92.904200 8.984550 -0.406207 -0.000000 -0.490167 0.380165 0.403029 16.377300 -0.000001 -0.000001 4.354200 -2.422690 2.760610 6.456720 -0.000001 -0.000000 7.452780 -2.073060 -4.393390 12.994200 -0.242716 4.980390 -91.171600 3.521710 -71.585600 5.348090 -0.000007 -0.000001 -64.414200 31.940800 -14.670700 24.328600 0.000019 0.000005 8.304830 13.977400 -31.149600 22.291600 -0.000001 0.000005 0.894721 5.482910 -5.860210 12.994500 -0.242716 -4.980390 87.606400 7.661790 -72.592600 -5.348130 -0.000001 -0.000004 -64.335200 42.170600 -11.357000 -24.328900 0.000322 -0.000009 3.094200 8.643240 -19.789900 -22.291500 -0.000108 -0.000004 6.499180 5.365130 -1.836450 -2.192480 -6.469440 -0.000000 -176.144000 -7.280890 -1.446790 39.081100 -0.000007 -0.000012 -0.065353 0.211308 17.185500 40.985400 -0.000006 -0.000013 -0.812525 3.817070 -63.905600 11.754300 -0.000000 0.000003 -0.000004 -0.000061 -16.579900 -2.192510 6.469440 -0.000001 -179.969000 9.975900 -179.894000 -39.081100 -0.002282 -0.040193 -0.051721 0.207817 14.837100 -40.985400 0.000008 0.000006 1.956650 7.381020 -63.452600 -11.754300 -0.000006 -0.000006 -0.005692 -0.068012 -19.340900
0.000000 0.000000 0.000000 0.000000 0.000000 -0.000000 -1.710890 92.829700 0.015920 88.979000 -2.299000 1.910240 15.735700 0.000005 -0.000001 94.335600 86.330200 -94.118900 8.984550 -0.406207 -0.000000 -0.448372 0.539206 0.435337 16.377300 -0.000001 -0.000001 4.385120 -2.290180 2.891240 6.456720 -0.000001 -0.000000 6.964960 -2.133880 -4.102960 12.994200 -0.242716 4.980390 -91.253100 3.656480 -71.068200 5.348090 -0.000007 -0.000001 -62.545200 26.764700 -15.813500 24.328600 0.000019 0.000005 6.990920 8.613710 -39.317900 22.291600 -0.000001 0.000005 2.975320 5.503160 -6.656450 12.994500 -0.242716 -4.980390 87.623900 7.627910 -72.640600 -5.348130 -0.000001 -0.000004 -64.401700 42.176900 -11.206100 -24.328900 0.000322 -0.000009 3.100800 8.621220 -19.875300 -22.291500 -0.000108 -0.000004 6.418960 5.363920 -1.799500 -2.192480 -6.469440 -0.000000 -176.089000 -7.204840 -1.557000 39.081100 -0.000007 -0.000012 -0.065690 0.211826 17.229400 40.985400 -0.000006 -0.000013 -0.862956 3.856770 -63.863500 11.754300 -0.000000 0.000003 -0.000001 -0.000017 -16.578200 -2.192510 6.469440 -0.000001 -179.896000 10.095500 -179.973000 -39.081100 -0.002282 -0.040193 -0.052243 0.209257 14.873100 -40.985400 0.000008 0.000006 2.018770 7.355310 -63.445300 -11.754300 -0.000006 -0.000006 -0.005838 -0.069359 -19.395800
